<?xml version="1.0" encoding="iso-8859-1"?>
<!-- Generator: Adobe Illustrator 26.1.0, SVG Export Plug-In . SVG Version: 6.00 Build 0)  -->
<svg version="1.1" baseProfile="basic" id="Layer_1"
	 xmlns="http://www.w3.org/2000/svg" xmlns:xlink="http://www.w3.org/1999/xlink" x="0px" y="0px" viewBox="0 0 260 260"
	 xml:space="preserve">
<g>
	<g>
		
			<radialGradient id="SVGID_1_" cx="296.2052" cy="111.8647" r="58.2137" gradientTransform="matrix(1.167 0 0 1.167 -173.8097 -27.5217)" gradientUnits="userSpaceOnUse">
			<stop  offset="0" style="stop-color:#A6A8A9"/>
			<stop  offset="1" style="stop-color:#1D1D1B"/>
		</radialGradient>
		<polygon style="fill:url(#SVGID_1_);" points="213.447,114.223 199.442,114.883 199.409,100.117 213.39,98.513 		"/>
	</g>
	<g>
		
			<radialGradient id="SVGID_00000089533965342960194710000008816647174255704754_" cx="307.6874" cy="141.2961" r="59.9197" gradientTransform="matrix(1.167 0 0 1.167 -173.8097 -27.5217)" gradientUnits="userSpaceOnUse">
			<stop  offset="0" style="stop-color:#A6A8A9"/>
			<stop  offset="1" style="stop-color:#1D1D1B"/>
		</radialGradient>
		<polygon style="fill:url(#SVGID_00000089533965342960194710000008816647174255704754_);" points="213.614,172.919 
			199.532,170.894 199.462,123.904 213.484,123.821 		"/>
	</g>
	<g>
		
			<radialGradient id="SVGID_00000179619420380508597690000004710718007681414065_" cx="320.8299" cy="24.0529" r="116.9007" gradientTransform="matrix(1.167 0 0 1.167 -173.8097 -27.5217)" gradientUnits="userSpaceOnUse">
			<stop  offset="0" style="stop-color:#414243"/>
			<stop  offset="1" style="stop-color:#1D1D1B"/>
		</radialGradient>
		<path style="fill:url(#SVGID_00000179619420380508597690000004710718007681414065_);" d="M213.227,59.149
			c0.527,0.31,1.018,0.812,1.448,1.451c0.43,0.637,0.801,1.411,1.094,2.275c0.297,0.861,0.517,1.811,0.647,2.797
			c0.13,0.986,0.17,2.013,0.1,3.031l-0.394,5.858l-0.037,0.577l-2.252-1.158l-48.127-24.753L160.772,32.3l-5.648-3.214l5.144,17.34
			l4.697,2.422l-36.544-18.796l3.893,2.002l-6.272-19.531l-7.273-4.137l6.576,20.084l-14.239-7.321l1.124-9.465
			c0.157-1.371,0.517-2.572,1.021-3.573c0.507-0.998,1.158-1.793,1.922-2.365c0.757-0.57,1.621-0.917,2.549-1.018
			c0.917-0.1,1.905,0.043,2.912,0.45c0.087,0.033,0.177,0.073,0.267,0.113c0.087,0.038,0.173,0.08,0.267,0.125
			c0.087,0.043,0.174,0.092,0.267,0.137c0.087,0.048,0.173,0.098,0.267,0.15L213.227,59.149z M199.545,66.627l3.94,2.03
			l-3.63-14.102l-4.067-2.315L199.545,66.627 M187.832,60.604l4.364,2.245l-3.997-14.929l-4.514-2.569L187.832,60.604
			 M210.138,72.079l3.58,1.84l-3.309-13.35l-3.69-2.1L210.138,72.079 M174.821,53.915l4.851,2.495l-4.427-15.863l-5.031-2.873
			L174.821,53.915 M143.898,38.008l6.135,3.156l-5.545-18.134l-6.375-3.63L143.898,38.008"/>
	</g>
	
		<radialGradient id="SVGID_00000018960129559449337500000006523519028704639370_" cx="290.8003" cy="174.6004" r="49.395" gradientTransform="matrix(1.167 0 0 1.167 -173.8097 -27.5217)" gradientUnits="userSpaceOnUse">
		<stop  offset="0" style="stop-color:#A6A8A9"/>
		<stop  offset="1" style="stop-color:#1D1D1B"/>
	</radialGradient>
	<path style="fill:url(#SVGID_00000018960129559449337500000006523519028704639370_);" d="M194.745,168.255
		c-0.04-0.005-0.083-0.007-0.127-0.017c-0.04-0.003-0.077-0.01-0.124-0.01c-0.037-0.003-0.08-0.013-0.123-0.013
		c-0.04-0.003-0.084-0.007-0.124-0.01c-0.137-0.01-0.277-0.014-0.407-0.02c-0.143,0-0.284,0-0.42,0
		c-0.14,0.007-0.28,0.01-0.424,0.023c-0.143,0.007-0.287,0.022-0.43,0.042c-0.19,0.022-0.384,0.055-0.577,0.088
		c-0.19,0.035-0.39,0.077-0.587,0.123c-0.194,0.05-0.397,0.1-0.59,0.162c-0.204,0.058-0.404,0.125-0.611,0.2
		c-0.304,0.108-0.614,0.235-0.924,0.375c-0.313,0.14-0.627,0.297-0.941,0.465c-0.317,0.172-0.637,0.359-0.958,0.562
		c-0.324,0.2-0.644,0.424-0.964,0.654c-1.054,0.761-2.058,1.651-2.999,2.646c-0.954,0.999-1.838,2.108-2.652,3.289
		c-0.817,1.191-1.565,2.459-2.219,3.78c-0.657,1.334-1.228,2.707-1.691,4.112c-0.15,0.454-0.294,0.916-0.424,1.375
		c-0.13,0.459-0.25,0.921-0.357,1.384c-0.107,0.46-0.2,0.923-0.28,1.386c-0.087,0.464-0.153,0.923-0.217,1.385
		c-0.047,0.375-0.083,0.751-0.11,1.119c-0.033,0.379-0.057,0.747-0.067,1.119c-0.01,0.365-0.02,0.729-0.01,1.094
		c0.003,0.365,0.02,0.722,0.043,1.079c0.013,0.237,0.033,0.472,0.06,0.706c0.02,0.23,0.05,0.457,0.08,0.689
		c0.03,0.227,0.07,0.455,0.107,0.677c0.043,0.222,0.09,0.447,0.14,0.665c0.043,0.187,0.087,0.375,0.134,0.554
		c0.05,0.183,0.1,0.362,0.153,0.534c0.053,0.175,0.11,0.347,0.167,0.512c0.06,0.168,0.12,0.335,0.183,0.495
		c0.273,0.702,0.597,1.338,0.961,1.917c0.364,0.571,0.767,1.081,1.211,1.525c0.44,0.444,0.917,0.826,1.421,1.141
		c0.504,0.312,1.037,0.555,1.595,0.741l14.099,4.592c-0.56-0.182-1.101-0.435-1.611-0.762c-0.51-0.322-0.991-0.726-1.434-1.186
		c-0.447-0.47-0.857-1.009-1.224-1.618c-0.37-0.606-0.697-1.288-0.974-2.032c-0.067-0.175-0.127-0.35-0.187-0.529
		c-0.057-0.178-0.113-0.364-0.17-0.547c-0.057-0.187-0.107-0.375-0.153-0.57c-0.053-0.195-0.097-0.394-0.14-0.592
		c-0.05-0.235-0.097-0.475-0.14-0.712c-0.04-0.242-0.077-0.482-0.107-0.729c-0.033-0.243-0.063-0.49-0.087-0.739
		c-0.027-0.249-0.047-0.499-0.063-0.749c-0.023-0.382-0.04-0.769-0.047-1.159c-0.007-0.387-0.003-0.781,0.01-1.179
		c0.013-0.394,0.034-0.791,0.063-1.191c0.03-0.399,0.07-0.806,0.117-1.209c0.06-0.495,0.13-0.991,0.21-1.488
		c0.084-0.495,0.18-0.994,0.287-1.488c0.107-0.497,0.227-0.996,0.354-1.491c0.134-0.497,0.277-0.992,0.43-1.483
		c0.467-1.508,1.038-2.991,1.705-4.425c0.654-1.423,1.401-2.791,2.229-4.08c0.817-1.273,1.712-2.467,2.662-3.546
		c0.951-1.076,1.955-2.037,3.013-2.864c0.324-0.25,0.647-0.49,0.968-0.706c0.324-0.22,0.641-0.42,0.957-0.609
		c0.317-0.187,0.631-0.355,0.948-0.505c0.31-0.152,0.621-0.292,0.927-0.409c0.203-0.082,0.404-0.157,0.604-0.223
		c0.2-0.063,0.4-0.123,0.597-0.174c0.2-0.053,0.394-0.1,0.591-0.138c0.194-0.038,0.384-0.072,0.577-0.099
		c0.14-0.023,0.287-0.037,0.427-0.052c0.143-0.012,0.284-0.018,0.424-0.028c0.14,0,0.28-0.007,0.417,0
		c0.137,0,0.277,0.005,0.41,0.013c0.043,0.003,0.083,0.007,0.124,0.01c0.043,0.005,0.09,0.01,0.13,0.01
		c0.04,0.007,0.077,0.01,0.12,0.013c0.043,0.007,0.087,0.013,0.127,0.017L194.745,168.255z"/>
	
		<radialGradient id="SVGID_00000049179923832417718420000018405752822878352554_" cx="313.8544" cy="182.866" r="15.6128" gradientTransform="matrix(1.167 0 0 1.167 -173.8097 -27.5217)" gradientUnits="userSpaceOnUse">
		<stop  offset="0" style="stop-color:#FFFFFF"/>
		<stop  offset="0.0896" style="stop-color:#FFFFFF;stop-opacity:0.9104"/>
		<stop  offset="1" style="stop-color:#FFFFFF;stop-opacity:0"/>
	</radialGradient>
	<path style="fill:url(#SVGID_00000049179923832417718420000018405752822878352554_);" d="M206.488,169.833
		c-0.04,0.003-0.08,0-0.12,0.003c-0.143,0.003-0.28,0.01-0.424,0.02c-0.143,0.02-0.287,0.033-0.427,0.055
		c-0.194,0.027-0.387,0.057-0.581,0.095c-0.197,0.043-0.39,0.09-0.584,0.14c-0.2,0.05-0.4,0.115-0.6,0.18
		c-0.204,0.064-0.404,0.135-0.604,0.217c-0.307,0.122-0.62,0.257-0.931,0.409c-0.314,0.153-0.627,0.324-0.947,0.507
		c-0.314,0.185-0.634,0.39-0.954,0.606c-0.324,0.224-0.647,0.46-0.971,0.711c-1.054,0.827-2.058,1.788-3.009,2.859
		c-0.954,1.084-1.845,2.275-2.666,3.553c-0.824,1.285-1.571,2.656-2.232,4.077c-0.661,1.431-1.234,2.919-1.701,4.424
		c-0.154,0.495-0.297,0.989-0.424,1.483c-0.13,0.495-0.25,0.994-0.357,1.493c-0.11,0.499-0.207,0.996-0.287,1.49
		c-0.08,0.499-0.154,0.994-0.21,1.488c-0.05,0.404-0.09,0.806-0.117,1.204c-0.033,0.405-0.05,0.802-0.067,1.198
		c-0.01,0.399-0.013,0.786-0.007,1.179c0.003,0.385,0.023,0.774,0.043,1.158c0.017,0.25,0.037,0.5,0.063,0.751
		c0.023,0.249,0.053,0.494,0.087,0.739c0.033,0.245,0.07,0.487,0.11,0.724c0.043,0.242,0.087,0.479,0.14,0.712
		c0.04,0.203,0.09,0.399,0.137,0.594c0.05,0.194,0.103,0.385,0.157,0.569c0.053,0.185,0.107,0.369,0.17,0.547
		c0.057,0.179,0.12,0.354,0.183,0.529c0.28,0.744,0.607,1.426,0.974,2.035c0.37,0.606,0.777,1.149,1.224,1.613
		c0.447,0.467,0.924,0.866,1.438,1.191c0.167,0.107,0.347,0.197,0.524,0.29l2.222,0.722c-0.56-0.182-1.101-0.435-1.611-0.762
		c-0.51-0.322-0.991-0.726-1.434-1.186c-0.447-0.47-0.857-1.009-1.224-1.618c-0.37-0.606-0.697-1.288-0.974-2.032
		c-0.067-0.175-0.127-0.35-0.187-0.529c-0.057-0.178-0.113-0.364-0.17-0.547c-0.057-0.187-0.107-0.375-0.153-0.57
		c-0.053-0.195-0.097-0.394-0.14-0.592c-0.05-0.235-0.097-0.475-0.14-0.712c-0.04-0.242-0.077-0.482-0.107-0.729
		c-0.033-0.243-0.063-0.49-0.087-0.739c-0.027-0.249-0.047-0.499-0.063-0.749c-0.023-0.382-0.04-0.769-0.047-1.159
		c-0.007-0.387-0.003-0.781,0.01-1.179c0.013-0.394,0.034-0.791,0.063-1.191c0.03-0.399,0.07-0.806,0.117-1.209
		c0.06-0.495,0.13-0.991,0.21-1.488c0.084-0.495,0.18-0.994,0.287-1.488c0.107-0.497,0.227-0.996,0.354-1.491
		c0.134-0.497,0.277-0.992,0.43-1.483c0.467-1.508,1.038-2.991,1.705-4.425c0.654-1.423,1.401-2.791,2.229-4.08
		c0.817-1.273,1.712-2.467,2.662-3.546c0.951-1.076,1.955-2.037,3.013-2.864c0.324-0.25,0.647-0.49,0.968-0.706
		c0.324-0.22,0.641-0.42,0.957-0.609c0.317-0.187,0.631-0.355,0.948-0.505c0.31-0.152,0.621-0.292,0.927-0.409
		c0.203-0.082,0.404-0.157,0.604-0.223c0.2-0.063,0.4-0.123,0.597-0.174c0.2-0.053,0.394-0.1,0.591-0.138
		c0.194-0.038,0.384-0.072,0.577-0.099c0.14-0.023,0.287-0.037,0.427-0.052c0.143-0.012,0.284-0.018,0.424-0.028
		c0.14,0,0.28-0.007,0.417,0c0.137,0,0.277,0.005,0.41,0.013c0.043,0.003,0.083,0.007,0.124,0.01c0.043,0.005,0.09,0.01,0.13,0.01
		c0.04,0.007,0.077,0.01,0.12,0.013c0.043,0.007,0.087,0.013,0.127,0.017L206.488,169.833z"/>
	<g>
		
			<radialGradient id="SVGID_00000149378575223828918900000009617327197999012782_" cx="263.7795" cy="113.5528" r="38.6375" gradientTransform="matrix(1.167 0 0 1.167 -173.8097 -27.5217)" gradientUnits="userSpaceOnUse">
			<stop  offset="0" style="stop-color:#A6A8A9"/>
			<stop  offset="1" style="stop-color:#1D1D1B"/>
		</radialGradient>
		<polygon style="fill:url(#SVGID_00000149378575223828918900000009617327197999012782_);" points="213.39,98.513 199.409,100.117 
			104.421,88.901 116.011,85.478 		"/>
	</g>
	<g>
		<polygon style="fill:#165672;" points="213.484,123.821 199.462,123.904 104.115,122.907 115.728,122.696 		"/>
	</g>
	
		<radialGradient id="SVGID_00000032620825096563324220000003849415139378430117_" cx="233.5999" cy="33.8527" r="18.9265" gradientTransform="matrix(1.167 0 0 1.167 -173.8097 -27.5217)" gradientUnits="userSpaceOnUse">
		<stop  offset="0" style="stop-color:#A6A8A9"/>
		<stop  offset="1" style="stop-color:#1D1D1B"/>
	</radialGradient>
	<path style="fill:url(#SVGID_00000032620825096563324220000003849415139378430117_);" d="M103.337,16.298
		c-0.127,0.112-0.247,0.232-0.363,0.359c-0.117,0.123-0.234,0.257-0.34,0.394c-0.113,0.14-0.22,0.282-0.32,0.434
		c-0.103,0.152-0.2,0.307-0.293,0.472c-0.113,0.199-0.224,0.409-0.32,0.626c-0.097,0.217-0.19,0.444-0.274,0.679
		c-0.083,0.235-0.163,0.479-0.227,0.729c-0.07,0.252-0.127,0.512-0.183,0.781c-0.01,0.06-0.02,0.123-0.03,0.183
		c-0.01,0.063-0.023,0.127-0.03,0.19c-0.01,0.062-0.023,0.124-0.03,0.187c-0.01,0.067-0.017,0.128-0.023,0.192l-1.074,8.682
		l11.28-9.058l1.124-9.465c0.007-0.07,0.013-0.14,0.023-0.21c0.01-0.07,0.02-0.137,0.03-0.205c0.01-0.07,0.02-0.137,0.03-0.205
		c0.013-0.067,0.023-0.134,0.033-0.2c0.057-0.292,0.12-0.574,0.194-0.847c0.07-0.274,0.15-0.537,0.237-0.791
		c0.09-0.253,0.187-0.497,0.294-0.734c0.103-0.234,0.214-0.457,0.337-0.671c0.097-0.177,0.197-0.347,0.31-0.507
		c0.103-0.16,0.214-0.315,0.334-0.46c0.113-0.15,0.237-0.29,0.357-0.424c0.127-0.132,0.257-0.257,0.387-0.375L103.337,16.298z"/>
	
		<radialGradient id="SVGID_00000166669935598182769300000005279583250316758163_" cx="238.3786" cy="47.1164" r="9.601" gradientTransform="matrix(1.167 0 0 1.167 -173.8097 -27.5217)" gradientUnits="userSpaceOnUse">
		<stop  offset="0" style="stop-color:#FFFFFF"/>
		<stop  offset="0.0896" style="stop-color:#FFFFFF;stop-opacity:0.9104"/>
		<stop  offset="1" style="stop-color:#FFFFFF;stop-opacity:0"/>
	</radialGradient>
	<path style="fill:url(#SVGID_00000166669935598182769300000005279583250316758163_);" d="M112.392,8.203
		c-0.083,0.197-0.167,0.394-0.237,0.604c-0.09,0.253-0.17,0.517-0.24,0.789c-0.073,0.275-0.137,0.556-0.19,0.849
		c-0.013,0.065-0.023,0.134-0.037,0.2c-0.01,0.067-0.02,0.135-0.03,0.204c-0.013,0.068-0.02,0.137-0.03,0.207
		c-0.01,0.07-0.02,0.14-0.023,0.21l-1.124,9.463l-10.526,8.452l-0.127,1.024l11.28-9.058l1.124-9.465
		c0.007-0.07,0.013-0.14,0.023-0.21c0.01-0.07,0.02-0.137,0.03-0.205c0.01-0.07,0.02-0.137,0.03-0.205
		c0.013-0.067,0.023-0.134,0.033-0.2c0.057-0.292,0.12-0.574,0.194-0.847c0.07-0.274,0.15-0.537,0.237-0.791
		c0.09-0.253,0.187-0.497,0.294-0.734c0.103-0.234,0.214-0.457,0.337-0.671c0.097-0.177,0.197-0.347,0.31-0.507
		c0.103-0.16,0.214-0.315,0.334-0.46c0.113-0.15,0.237-0.29,0.357-0.424c0.127-0.132,0.257-0.257,0.387-0.375L112.392,8.203z"/>
	
		<radialGradient id="SVGID_00000016065065160962754040000013521539948941290648_" cx="244.0268" cy="42.2132" r="21.6458" gradientTransform="matrix(1.167 0 0 1.167 -173.8097 -27.5217)" gradientUnits="userSpaceOnUse">
		<stop  offset="0" style="stop-color:#FFFFFF"/>
		<stop  offset="0.0896" style="stop-color:#FFFFFF;stop-opacity:0.9104"/>
		<stop  offset="1" style="stop-color:#FFFFFF;stop-opacity:0"/>
	</radialGradient>
	<path style="fill:url(#SVGID_00000016065065160962754040000013521539948941290648_);" d="M112.392,8.203
		c-0.083,0.197-0.167,0.394-0.237,0.604c-0.09,0.253-0.17,0.517-0.24,0.789c-0.073,0.275-0.137,0.556-0.19,0.849
		c-0.013,0.065-0.023,0.134-0.037,0.2c-0.01,0.067-0.02,0.135-0.03,0.204c-0.013,0.068-0.02,0.137-0.03,0.207
		c-0.01,0.07-0.02,0.14-0.023,0.21l-1.124,9.463l-10.526,8.452l-0.127,1.024l11.28-9.058l1.124-9.465
		c0.007-0.07,0.013-0.14,0.023-0.21c0.01-0.07,0.02-0.137,0.03-0.205c0.01-0.07,0.02-0.137,0.03-0.205
		c0.013-0.067,0.023-0.134,0.033-0.2c0.057-0.292,0.12-0.574,0.194-0.847c0.07-0.274,0.15-0.537,0.237-0.791
		c0.09-0.253,0.187-0.497,0.294-0.734c0.103-0.234,0.214-0.457,0.337-0.671c0.097-0.177,0.197-0.347,0.31-0.507
		c0.103-0.16,0.214-0.315,0.334-0.46c0.113-0.15,0.237-0.29,0.357-0.424c0.127-0.132,0.257-0.257,0.387-0.375L112.392,8.203z"/>
	
		<radialGradient id="SVGID_00000065041442906957329740000017871075468714428308_" cx="226.2465" cy="98.8267" r="90.3809" gradientTransform="matrix(1.167 0 0 1.167 -173.8097 -27.5217)" gradientUnits="userSpaceOnUse">
		<stop  offset="0" style="stop-color:#A6A8A9"/>
		<stop  offset="1" style="stop-color:#1D1D1B"/>
	</radialGradient>
	<polygon style="fill:url(#SVGID_00000065041442906957329740000017871075468714428308_);" points="98.493,54.445 98.293,79.677 
		97.356,186.14 108.648,192.092 109.532,75.296 109.723,47.653 	"/>
	
		<radialGradient id="SVGID_00000030475999611385777210000001556637311937132959_" cx="200.6143" cy="178.0667" r="48.4373" gradientTransform="matrix(1.167 0 0 1.167 -173.8097 -27.5217)" gradientUnits="userSpaceOnUse">
		<stop  offset="0" style="stop-color:#A6A8A9"/>
		<stop  offset="1" style="stop-color:#1D1D1B"/>
	</radialGradient>
	<path style="fill:url(#SVGID_00000030475999611385777210000001556637311937132959_);" d="M95.711,185.127
		c-0.253-0.133-0.507-0.26-0.771-0.382c-0.264-0.118-0.53-0.229-0.801-0.34c-0.277-0.104-0.554-0.2-0.841-0.297
		c-0.28-0.09-0.571-0.177-0.864-0.259c-0.487-0.13-0.991-0.245-1.501-0.339c-0.514-0.093-1.044-0.169-1.585-0.225
		c-0.54-0.055-1.091-0.09-1.655-0.108c-0.567-0.017-1.141-0.013-1.731,0.005c-0.297,0.018-0.594,0.032-0.897,0.057
		c-0.3,0.018-0.607,0.047-0.914,0.083c-0.307,0.028-0.617,0.067-0.931,0.11c-0.31,0.043-0.63,0.095-0.947,0.143
		c-0.417,0.075-0.841,0.157-1.271,0.247c-0.43,0.088-0.867,0.188-1.301,0.3c-0.437,0.108-0.877,0.228-1.321,0.357
		c-0.444,0.128-0.894,0.269-1.348,0.415c-0.684,0.232-1.375,0.48-2.078,0.749c-0.701,0.275-1.405,0.572-2.115,0.894
		c-0.717,0.32-1.438,0.667-2.162,1.038c-0.724,0.37-1.458,0.769-2.192,1.186c-2.402,1.373-4.704,2.939-6.882,4.654
		c-2.205,1.731-4.274,3.621-6.182,5.618c-1.935,2.022-3.693,4.149-5.255,6.342c-1.575,2.21-2.942,4.482-4.07,6.769
		c-0.37,0.744-0.714,1.493-1.031,2.24c-0.317,0.746-0.604,1.496-0.867,2.24c-0.267,0.744-0.5,1.483-0.704,2.223
		c-0.21,0.741-0.384,1.475-0.534,2.204c-0.12,0.595-0.224,1.189-0.3,1.776c-0.08,0.587-0.143,1.168-0.18,1.743
		c-0.04,0.577-0.053,1.146-0.05,1.706c0.003,0.566,0.03,1.118,0.08,1.661c0.03,0.362,0.073,0.721,0.13,1.074
		c0.047,0.355,0.11,0.707,0.183,1.053c0.073,0.347,0.154,0.686,0.247,1.019c0.09,0.335,0.19,0.667,0.307,0.994
		c0.077,0.225,0.157,0.445,0.244,0.657c0.083,0.215,0.174,0.425,0.267,0.632c0.093,0.205,0.19,0.404,0.293,0.606
		c0.1,0.197,0.207,0.394,0.314,0.582l7.279,12.659c-0.123-0.207-0.237-0.42-0.35-0.639c-0.11-0.217-0.213-0.439-0.317-0.664
		c-0.1-0.225-0.197-0.46-0.297-0.694c-0.09-0.237-0.183-0.479-0.267-0.724c-0.123-0.362-0.234-0.729-0.334-1.103
		c-0.103-0.37-0.19-0.746-0.27-1.129c-0.08-0.384-0.15-0.774-0.207-1.168c-0.06-0.392-0.103-0.789-0.137-1.194
		c-0.057-0.606-0.087-1.226-0.09-1.855c-0.007-0.626,0.013-1.264,0.05-1.905c0.043-0.649,0.11-1.298,0.197-1.955
		c0.087-0.662,0.197-1.329,0.334-2.002c0.157-0.814,0.35-1.64,0.577-2.474c0.227-0.831,0.48-1.668,0.771-2.51
		c0.287-0.837,0.604-1.678,0.951-2.524c0.347-0.841,0.72-1.685,1.124-2.53c1.228-2.584,2.722-5.154,4.44-7.665
		c1.698-2.482,3.613-4.897,5.708-7.194c2.072-2.27,4.324-4.415,6.706-6.394c2.359-1.952,4.844-3.738,7.433-5.308
		c0.794-0.484,1.578-0.937,2.359-1.364c0.784-0.425,1.558-0.821,2.325-1.191c0.767-0.37,1.521-0.714,2.279-1.028
		c0.747-0.32,1.491-0.609,2.222-0.874c0.487-0.172,0.971-0.335,1.448-0.485c0.474-0.152,0.947-0.292,1.418-0.425
		c0.467-0.125,0.927-0.247,1.391-0.354c0.457-0.108,0.911-0.205,1.361-0.295c0.34-0.063,0.674-0.12,1.011-0.175
		c0.334-0.057,0.661-0.104,0.991-0.142c0.33-0.043,0.654-0.083,0.978-0.112c0.32-0.032,0.641-0.055,0.957-0.072
		c0.627-0.038,1.241-0.057,1.845-0.043c0.597,0.005,1.188,0.033,1.765,0.083c0.574,0.055,1.134,0.125,1.685,0.218
		c0.54,0.097,1.078,0.21,1.598,0.347c0.31,0.082,0.617,0.172,0.917,0.269c0.304,0.095,0.597,0.197,0.884,0.312
		c0.293,0.113,0.577,0.23,0.857,0.352c0.277,0.125,0.547,0.258,0.814,0.404L95.711,185.127z"/>
	
		<radialGradient id="SVGID_00000027582937713874168340000013177173168988127906_" cx="200.6143" cy="178.0667" r="48.4373" gradientTransform="matrix(1.167 0 0 1.167 -173.8097 -27.5217)" gradientUnits="userSpaceOnUse">
		<stop  offset="0" style="stop-color:#A6A8A9"/>
		<stop  offset="1" style="stop-color:#1D1D1B"/>
	</radialGradient>
	<path style="fill:url(#SVGID_00000027582937713874168340000013177173168988127906_);" d="M95.711,185.127
		c-0.253-0.133-0.507-0.26-0.771-0.382c-0.264-0.118-0.53-0.229-0.801-0.34c-0.277-0.104-0.554-0.2-0.841-0.297
		c-0.28-0.09-0.571-0.177-0.864-0.259c-0.487-0.13-0.991-0.245-1.501-0.339c-0.514-0.093-1.044-0.169-1.585-0.225
		c-0.54-0.055-1.091-0.09-1.655-0.108c-0.567-0.017-1.141-0.013-1.731,0.005c-0.297,0.018-0.594,0.032-0.897,0.057
		c-0.3,0.018-0.607,0.047-0.914,0.083c-0.307,0.028-0.617,0.067-0.931,0.11c-0.31,0.043-0.63,0.095-0.947,0.143
		c-0.417,0.075-0.841,0.157-1.271,0.247c-0.43,0.088-0.867,0.188-1.301,0.3c-0.437,0.108-0.877,0.228-1.321,0.357
		c-0.444,0.128-0.894,0.269-1.348,0.415c-0.684,0.232-1.375,0.48-2.078,0.749c-0.701,0.275-1.405,0.572-2.115,0.894
		c-0.717,0.32-1.438,0.667-2.162,1.038c-0.724,0.37-1.458,0.769-2.192,1.186c-2.402,1.373-4.704,2.939-6.882,4.654
		c-2.205,1.731-4.274,3.621-6.182,5.618c-1.935,2.022-3.693,4.149-5.255,6.342c-1.575,2.21-2.942,4.482-4.07,6.769
		c-0.37,0.744-0.714,1.493-1.031,2.24c-0.317,0.746-0.604,1.496-0.867,2.24c-0.267,0.744-0.5,1.483-0.704,2.223
		c-0.21,0.741-0.384,1.475-0.534,2.204c-0.12,0.595-0.224,1.189-0.3,1.776c-0.08,0.587-0.143,1.168-0.18,1.743
		c-0.04,0.577-0.053,1.146-0.05,1.706c0.003,0.566,0.03,1.118,0.08,1.661c0.03,0.362,0.073,0.721,0.13,1.074
		c0.047,0.355,0.11,0.707,0.183,1.053c0.073,0.347,0.154,0.686,0.247,1.019c0.09,0.335,0.19,0.667,0.307,0.994
		c0.077,0.225,0.157,0.445,0.244,0.657c0.083,0.215,0.174,0.425,0.267,0.632c0.093,0.205,0.19,0.404,0.293,0.606
		c0.1,0.197,0.207,0.394,0.314,0.582l7.279,12.659c-0.123-0.207-0.237-0.42-0.35-0.639c-0.11-0.217-0.213-0.439-0.317-0.664
		c-0.1-0.225-0.197-0.46-0.297-0.694c-0.09-0.237-0.183-0.479-0.267-0.724c-0.123-0.362-0.234-0.729-0.334-1.103
		c-0.103-0.37-0.19-0.746-0.27-1.129c-0.08-0.384-0.15-0.774-0.207-1.168c-0.06-0.392-0.103-0.789-0.137-1.194
		c-0.057-0.606-0.087-1.226-0.09-1.855c-0.007-0.626,0.013-1.264,0.05-1.905c0.043-0.649,0.11-1.298,0.197-1.955
		c0.087-0.662,0.197-1.329,0.334-2.002c0.157-0.814,0.35-1.64,0.577-2.474c0.227-0.831,0.48-1.668,0.771-2.51
		c0.287-0.837,0.604-1.678,0.951-2.524c0.347-0.841,0.72-1.685,1.124-2.53c1.228-2.584,2.722-5.154,4.44-7.665
		c1.698-2.482,3.613-4.897,5.708-7.194c2.072-2.27,4.324-4.415,6.706-6.394c2.359-1.952,4.844-3.738,7.433-5.308
		c0.794-0.484,1.578-0.937,2.359-1.364c0.784-0.425,1.558-0.821,2.325-1.191c0.767-0.37,1.521-0.714,2.279-1.028
		c0.747-0.32,1.491-0.609,2.222-0.874c0.487-0.172,0.971-0.335,1.448-0.485c0.474-0.152,0.947-0.292,1.418-0.425
		c0.467-0.125,0.927-0.247,1.391-0.354c0.457-0.108,0.911-0.205,1.361-0.295c0.34-0.063,0.674-0.12,1.011-0.175
		c0.334-0.057,0.661-0.104,0.991-0.142c0.33-0.043,0.654-0.083,0.978-0.112c0.32-0.032,0.641-0.055,0.957-0.072
		c0.627-0.038,1.241-0.057,1.845-0.043c0.597,0.005,1.188,0.033,1.765,0.083c0.574,0.055,1.134,0.125,1.685,0.218
		c0.54,0.097,1.078,0.21,1.598,0.347c0.31,0.082,0.617,0.172,0.917,0.269c0.304,0.095,0.597,0.197,0.884,0.312
		c0.293,0.113,0.577,0.23,0.857,0.352c0.277,0.125,0.547,0.258,0.814,0.404L95.711,185.127z"/>
	
		<radialGradient id="SVGID_00000118391533707200076380000017453360599401238973_" cx="203.727" cy="196.601" r="26.6511" gradientTransform="matrix(1.167 0 0 1.167 -173.8097 -27.5217)" gradientUnits="userSpaceOnUse">
		<stop  offset="0" style="stop-color:#FFFFFF"/>
		<stop  offset="0.0896" style="stop-color:#FFFFFF;stop-opacity:0.9104"/>
		<stop  offset="1" style="stop-color:#FFFFFF;stop-opacity:0"/>
	</radialGradient>
	<path style="fill:url(#SVGID_00000118391533707200076380000017453360599401238973_);" d="M104.708,189.853
		c-0.244-0.1-0.49-0.202-0.737-0.295c-0.297-0.108-0.594-0.209-0.904-0.305c-0.307-0.088-0.617-0.177-0.934-0.255
		c-0.527-0.134-1.071-0.24-1.621-0.329c-0.557-0.088-1.124-0.155-1.705-0.2c-0.587-0.048-1.181-0.068-1.791-0.072
		c-0.61,0-1.235,0.02-1.865,0.063c-0.32,0.023-0.647,0.052-0.971,0.08c-0.327,0.035-0.654,0.075-0.987,0.122
		c-0.334,0.047-0.667,0.095-1.004,0.153c-0.337,0.057-0.681,0.119-1.024,0.189c-0.454,0.09-0.911,0.195-1.371,0.305
		c-0.467,0.11-0.938,0.235-1.408,0.374c-0.474,0.13-0.951,0.28-1.431,0.435c-0.481,0.157-0.968,0.325-1.455,0.502
		c-0.741,0.273-1.495,0.567-2.249,0.892c-0.761,0.322-1.525,0.677-2.295,1.049c-0.777,0.377-1.555,0.782-2.342,1.214
		c-0.787,0.437-1.581,0.897-2.375,1.388c-2.606,1.603-5.108,3.414-7.473,5.388c-2.395,2.002-4.654,4.168-6.729,6.459
		c-2.099,2.315-4.013,4.749-5.712,7.253c-1.715,2.527-3.196,5.118-4.42,7.71c-0.4,0.847-0.771,1.698-1.111,2.539
		c-0.34,0.849-0.654,1.693-0.937,2.539c-0.284,0.844-0.534,1.681-0.757,2.514c-0.217,0.834-0.407,1.663-0.564,2.479
		c-0.124,0.676-0.234,1.339-0.314,2.003c-0.08,0.659-0.14,1.311-0.177,1.955c-0.033,0.644-0.047,1.283-0.033,1.912
		c0.01,0.624,0.047,1.244,0.107,1.855c0.04,0.399,0.09,0.799,0.154,1.191c0.013,0.082,0.03,0.167,0.047,0.247l3.456,6.01
		c-0.123-0.207-0.237-0.42-0.35-0.639c-0.11-0.217-0.213-0.439-0.317-0.664c-0.1-0.225-0.197-0.46-0.297-0.694
		c-0.09-0.237-0.183-0.479-0.267-0.724c-0.123-0.362-0.234-0.729-0.334-1.103c-0.103-0.37-0.19-0.746-0.27-1.129
		c-0.08-0.384-0.15-0.774-0.207-1.168c-0.06-0.392-0.103-0.789-0.137-1.194c-0.057-0.606-0.087-1.226-0.09-1.855
		c-0.007-0.626,0.013-1.264,0.05-1.905c0.043-0.649,0.11-1.298,0.197-1.955c0.087-0.662,0.197-1.329,0.334-2.002
		c0.157-0.814,0.35-1.64,0.577-2.474c0.227-0.831,0.48-1.668,0.771-2.51c0.287-0.837,0.604-1.678,0.951-2.524
		c0.347-0.841,0.72-1.685,1.124-2.53c1.228-2.584,2.722-5.154,4.44-7.665c1.698-2.482,3.613-4.897,5.708-7.194
		c2.072-2.27,4.324-4.415,6.706-6.394c2.359-1.952,4.844-3.738,7.433-5.308c0.794-0.484,1.578-0.937,2.359-1.364
		c0.784-0.425,1.558-0.821,2.325-1.191c0.767-0.37,1.521-0.714,2.279-1.028c0.747-0.32,1.491-0.609,2.222-0.874
		c0.487-0.172,0.971-0.335,1.448-0.485c0.474-0.152,0.947-0.292,1.418-0.425c0.467-0.125,0.927-0.247,1.391-0.354
		c0.457-0.108,0.911-0.205,1.361-0.295c0.34-0.063,0.674-0.12,1.011-0.175c0.334-0.057,0.661-0.104,0.991-0.142
		c0.33-0.043,0.654-0.083,0.978-0.112c0.32-0.032,0.641-0.055,0.957-0.072c0.627-0.038,1.241-0.057,1.845-0.043
		c0.597,0.005,1.188,0.033,1.765,0.083c0.574,0.055,1.134,0.125,1.685,0.218c0.54,0.097,1.078,0.21,1.598,0.347
		c0.31,0.082,0.617,0.172,0.917,0.269c0.304,0.095,0.597,0.197,0.884,0.312c0.293,0.113,0.577,0.23,0.857,0.352
		c0.277,0.125,0.547,0.258,0.814,0.404L104.708,189.853z"/>
	
		<radialGradient id="SVGID_00000137133321035270760050000017340087988427431315_" cx="200.615" cy="178.0716" r="48.4382" gradientTransform="matrix(1.167 0 0 1.167 -173.8097 -27.5217)" gradientUnits="userSpaceOnUse">
		<stop  offset="0" style="stop-color:#A6A8A9"/>
		<stop  offset="1" style="stop-color:#1D1D1B"/>
	</radialGradient>
	<path style="fill:url(#SVGID_00000137133321035270760050000017340087988427431315_);" d="M102.42,188.65l-6.709-3.523
		c-0.253-0.133-0.507-0.26-0.771-0.382c-0.264-0.118-0.53-0.229-0.801-0.34c-0.154-0.057-0.307-0.104-0.457-0.157
		c0.2,0.087,0.397,0.179,0.59,0.275L102.42,188.65z"/>
	
		<radialGradient id="SVGID_00000018922890446169846740000013132513350259017089_" cx="316.0504" cy="103.8754" r="68.1881" gradientTransform="matrix(1.167 0 0 1.167 -173.8097 -27.5217)" gradientUnits="userSpaceOnUse">
		<stop  offset="0" style="stop-color:#A6A8A9"/>
		<stop  offset="1" style="stop-color:#1D1D1B"/>
	</radialGradient>
	<polygon style="fill:url(#SVGID_00000018922890446169846740000013132513350259017089_);" points="111.107,21.147 99.828,30.205 
		184.563,71.945 202.971,77.385 213.817,73.979 	"/>
	<path style="fill:none;" d="M213.39,98.513l-97.379-13.034c-0.007,1.66-0.02,3.398-0.03,5.204c-0.017,1.808-0.027,3.686-0.04,5.621
		c-0.017,1.938-0.03,3.935-0.043,5.982c-0.017,2.048-0.033,4.147-0.053,6.285l82.757,4.792l-0.027-13.139l13.978-1.608l0.06,15.56
		l0.834,0.047L213.39,98.513z"/>
	
		<radialGradient id="SVGID_00000072276220971633626920000016911306097453039749_" cx="332.1826" cy="138.0732" r="38.3573" gradientTransform="matrix(1.167 0 0 1.167 -173.8097 -27.5217)" gradientUnits="userSpaceOnUse">
		<stop  offset="0" style="stop-color:#FFFFFF"/>
		<stop  offset="0.0896" style="stop-color:#FFFFFF;stop-opacity:0.9104"/>
		<stop  offset="1" style="stop-color:#FFFFFF;stop-opacity:0"/>
	</radialGradient>
	<path style="fill:url(#SVGID_00000072276220971633626920000016911306097453039749_);" d="M212.773,172.035
		c0.29,0.27,0.574,0.555,0.841,0.884l-0.13-49.099l-14.022,0.084v0.098l13.185-0.075L212.773,172.035z"/>
	
		<radialGradient id="SVGID_00000040542816846621310810000009186605136229594502_" cx="332.1807" cy="111.7613" r="19.7296" gradientTransform="matrix(1.167 0 0 1.167 -173.8097 -27.5217)" gradientUnits="userSpaceOnUse">
		<stop  offset="0" style="stop-color:#FFFFFF"/>
		<stop  offset="0.0896" style="stop-color:#FFFFFF;stop-opacity:0.9104"/>
		<stop  offset="1" style="stop-color:#FFFFFF;stop-opacity:0"/>
	</radialGradient>
	<path style="fill:url(#SVGID_00000040542816846621310810000009186605136229594502_);" d="M212.74,120.575
		c0.267-0.104,0.547-0.157,0.834-0.164L213.484,96l-14.022,0.084v0.097l13.185-0.075L212.74,120.575z"/>
	
		<radialGradient id="SVGID_00000013166735276855370560000005059169582166183582_" cx="309.5962" cy="226.1171" r="167.8252" gradientTransform="matrix(1.167 0 0 1.167 -173.8097 -27.5217)" gradientUnits="userSpaceOnUse">
		<stop  offset="0" style="stop-color:#221E20"/>
		<stop  offset="1" style="stop-color:#1D1D1B"/>
	</radialGradient>
	<path style="fill:url(#SVGID_00000013166735276855370560000005059169582166183582_);" d="M216.416,181.725
		c-0.027-0.612-0.073-1.209-0.147-1.806c0.047-2.352,0.083-6.222,0.1-11.079c0.02-4.847,0.03-25.153,0.027-31.417
		c0-6.255-0.01-12.951-0.027-19.553c-0.013-6.589-0.033-13.088-0.053-18.968l-0.013-2.254c-0.003-1.481-0.01-2.916-0.017-4.295
		c-0.007-1.379-0.013-2.701-0.017-3.962c-0.007-1.258-0.01-2.452-0.017-3.573c-0.007-1.121-0.013-2.169-0.017-3.136l-0.114-7.119
		l-0.037,0.577l-2.269-1.161l-4.083,10.592l-3.753-0.744l4.234-10.759l-6.709-1.696l-4.524,11.073l-4.147-0.821l4.697-11.258
		l-7.423-1.877l-5.034,11.601l-4.614-0.914l5.241-11.803l-8.25-2.087l-5.638,12.182l-5.154-1.019l5.878-12.406l-9.234-2.332
		l-6.349,12.821l-5.805-1.148l6.635-13.071l-10.395-2.629l-7.2,13.531l-6.585-1.301l7.553-13.808l-11.793-2.983l-8.24,14.324
		l-7.53-1.49l8.664-14.629l-14.536-3.677l-0.19,27.643l-0.884,116.796c-0.974-0.707-2.055-1.298-3.219-1.763
		c-1.174-0.467-2.442-0.812-3.783-1.028c-1.355-0.222-2.792-0.314-4.294-0.27c-1.521,0.045-3.109,0.222-4.754,0.539
		c-1.134,0.22-2.292,0.505-3.476,0.859c-1.191,0.354-2.409,0.781-3.64,1.273c-1.244,0.5-2.509,1.071-3.787,1.715
		c-1.288,0.647-2.589,1.369-3.9,2.17c-4.604,2.797-8.877,6.254-12.651,10.129c-3.857,3.955-7.166,8.327-9.742,12.826
		c-2.612,4.559-4.45,9.216-5.324,13.66c-0.877,4.465-0.774,8.671,0.464,12.295c0.107,0.309,0.22,0.607,0.34,0.904
		c0.123,0.295,0.25,0.577,0.384,0.861c0.133,0.275,0.274,0.547,0.42,0.817c0.15,0.259,0.31,0.522,0.47,0.771
		c1.171,1.84,2.692,3.309,4.49,4.405c1.785,1.088,3.837,1.81,6.088,2.17c2.229,0.359,4.641,0.359,7.183,0.02
		c2.509-0.332,5.134-0.999,7.82-1.985c1.231-0.46,2.479-0.982,3.733-1.571c1.244-0.587,2.495-1.238,3.743-1.955
		c1.241-0.712,2.485-1.488,3.72-2.322c1.234-0.836,2.455-1.725,3.673-2.686c2.819-2.214,5.411-4.616,7.743-7.131
		c2.305-2.479,4.364-5.076,6.155-7.717c1.775-2.612,3.293-5.273,4.524-7.92c1.224-2.622,2.172-5.243,2.816-7.79
		c0.253-1.006,0.46-2.005,0.617-2.989c0.16-0.981,0.27-1.95,0.327-2.901c0.057-0.954,0.063-1.887,0.02-2.801
		c-0.05-0.912-0.15-1.81-0.307-2.681c0.133-2.909,0.25-7.338,0.37-12.844c0.12-5.496,0.227-12.068,0.334-19.271
		c0.1-7.195,0.197-15.011,0.284-23.03c0.09-8.002,0.167-16.195,0.237-24.155l97.756,1.124l0.13,49.099l-0.841-0.122v0.225
		l-10.109-1.451c-0.193,0.11-0.387,0.217-0.577,0.337c-0.537,0.327-1.071,0.701-1.605,1.118c-1.875,1.468-3.59,3.36-5.088,5.531
		c-1.521,2.202-2.809,4.684-3.8,7.288c-0.998,2.63-1.685,5.371-2.002,8.05c-0.314,2.689-0.25,5.303,0.253,7.665
		c0.043,0.198,0.087,0.397,0.14,0.592c0.047,0.195,0.097,0.384,0.153,0.57c0.057,0.183,0.113,0.369,0.17,0.547
		c0.06,0.178,0.12,0.354,0.187,0.529c0.47,1.258,1.078,2.325,1.791,3.189c0.711,0.861,1.531,1.525,2.432,1.987
		c0.891,0.454,1.868,0.712,2.893,0.766c1.018,0.057,2.089-0.085,3.186-0.429c0.507-0.158,1.018-0.362,1.535-0.606
		c0.514-0.239,1.031-0.527,1.551-0.851c0.514-0.322,1.031-0.691,1.551-1.101c0.51-0.405,1.024-0.857,1.535-1.348
		c1.191-1.143,2.292-2.441,3.283-3.843c0.984-1.391,1.868-2.893,2.636-4.452c0.764-1.541,1.414-3.158,1.945-4.792
		c0.531-1.625,0.931-3.273,1.204-4.906c0.107-0.646,0.197-1.293,0.26-1.93c0.063-0.636,0.107-1.271,0.127-1.898
		C216.443,182.958,216.443,182.34,216.416,181.725z M212.613,114.326l-14.009,0.661l-0.003-1.623l-82.757-4.792
		c0.02-2.138,0.037-4.237,0.053-6.285c0.013-2.047,0.027-4.043,0.043-5.982c0.013-1.935,0.023-3.813,0.04-5.621
		c0.01-1.807,0.023-3.545,0.03-5.204l97.379,13.034l0.057,15.71l-0.834-0.047V114.326z"/>
	
		<radialGradient id="SVGID_00000036937243421702042260000002308327316258795184_" cx="307.6688" cy="150.2999" r="49.8695" gradientTransform="matrix(1.167 0 0 1.167 -173.8097 -27.5217)" gradientUnits="userSpaceOnUse">
		<stop  offset="0" style="stop-color:#A6A8A9"/>
		<stop  offset="1" style="stop-color:#1D1D1B"/>
	</radialGradient>
	<path style="fill:url(#SVGID_00000036937243421702042260000002308327316258795184_);" d="M212.773,172.035v0.762l0.841,0.122
		C213.347,172.591,213.063,172.305,212.773,172.035z"/>
	
		<radialGradient id="SVGID_00000089572206380238233540000003313039883829148555_" cx="309.5785" cy="238.4644" r="167.7051" gradientTransform="matrix(1.167 0 0 1.167 -173.8097 -27.5217)" gradientUnits="userSpaceOnUse">
		<stop  offset="0" style="stop-color:#221E20"/>
		<stop  offset="1" style="stop-color:#1D1D1B"/>
	</radialGradient>
	<path style="fill:url(#SVGID_00000089572206380238233540000003313039883829148555_);" d="M212.773,172.035v0.762l0.841,0.122
		C213.347,172.591,213.063,172.305,212.773,172.035z"/>
	
		<radialGradient id="SVGID_00000077307348657177598170000012547673345402565539_" cx="309.5951" cy="226.0835" r="167.7757" gradientTransform="matrix(1.167 0 0 1.167 -173.8097 -27.5217)" gradientUnits="userSpaceOnUse">
		<stop  offset="0" style="stop-color:#221E20"/>
		<stop  offset="1" style="stop-color:#1D1D1B"/>
	</radialGradient>
	<polygon style="fill:url(#SVGID_00000077307348657177598170000012547673345402565539_);" points="198.604,114.987 212.613,114.326 
		212.613,114.176 198.601,113.364 	"/>
	
		<radialGradient id="SVGID_00000014625915736905945800000014008232769655227020_" cx="309.6069" cy="238.4464" r="167.6415" gradientTransform="matrix(1.167 0 0 1.167 -173.8097 -27.5217)" gradientUnits="userSpaceOnUse">
		<stop  offset="0" style="stop-color:#221E20"/>
		<stop  offset="1" style="stop-color:#1D1D1B"/>
	</radialGradient>
	<path style="fill:url(#SVGID_00000014625915736905945800000014008232769655227020_);" d="M212.773,172.797l-9.785-1.403
		c-0.107,0.058-0.217,0.117-0.324,0.177l10.109,1.451V172.797z"/>
	
		<radialGradient id="SVGID_00000129916684116404988030000005281942407719280811_" cx="309.5967" cy="238.5093" r="167.7941" gradientTransform="matrix(1.167 0 0 1.167 -173.8097 -27.5217)" gradientUnits="userSpaceOnUse">
		<stop  offset="0" style="stop-color:#221E20"/>
		<stop  offset="1" style="stop-color:#1D1D1B"/>
	</radialGradient>
	<path style="fill:url(#SVGID_00000129916684116404988030000005281942407719280811_);" d="M212.189,171.533
		c-0.517-0.389-1.071-0.701-1.655-0.936c-0.587-0.235-1.208-0.394-1.855-0.47c-0.65-0.073-1.328-0.062-2.028,0.037
		c-0.48,0.067-0.971,0.17-1.471,0.324c-0.5,0.147-1.011,0.34-1.525,0.575c-0.22,0.102-0.44,0.214-0.667,0.332l9.785,1.403v-0.762
		C212.583,171.858,212.393,171.685,212.189,171.533z"/>
	<g>
		<g>
			<g>
				
					<radialGradient id="SVGID_00000034788230405572708290000010801110634361789374_" cx="305.6451" cy="59.4204" r="113.8557" gradientTransform="matrix(1.167 0 0 1.167 -173.8097 -27.5217)" gradientUnits="userSpaceOnUse">
					<stop  offset="0" style="stop-color:#FFFFFF"/>
					<stop  offset="1" style="stop-color:#CFD1D2"/>
				</radialGradient>
				<polygon style="fill:url(#SVGID_00000034788230405572708290000010801110634361789374_);" points="206.718,58.469 
					210.408,60.569 213.717,73.919 210.138,72.079 				"/>
			</g>
			<g>
				
					<radialGradient id="SVGID_00000088814325529308560060000012027495600556864392_" cx="305.656" cy="59.422" r="113.8226" gradientTransform="matrix(1.167 0 0 1.167 -173.8097 -27.5217)" gradientUnits="userSpaceOnUse">
					<stop  offset="0" style="stop-color:#FFFFFF"/>
					<stop  offset="1" style="stop-color:#CFD1D2"/>
				</radialGradient>
				<polygon style="fill:url(#SVGID_00000088814325529308560060000012027495600556864392_);" points="195.789,52.24 199.856,54.555 
					203.485,68.657 199.545,66.627 				"/>
			</g>
			<g>
				
					<radialGradient id="SVGID_00000153707062176326925520000005047922221124127643_" cx="305.6537" cy="59.4224" r="113.8308" gradientTransform="matrix(1.167 0 0 1.167 -173.8097 -27.5217)" gradientUnits="userSpaceOnUse">
					<stop  offset="0" style="stop-color:#FFFFFF"/>
					<stop  offset="1" style="stop-color:#CFD1D2"/>
				</radialGradient>
				<polygon style="fill:url(#SVGID_00000153707062176326925520000005047922221124127643_);" points="183.685,45.351 188.199,47.92 
					192.196,62.849 187.832,60.604 				"/>
			</g>
			<g>
				
					<radialGradient id="SVGID_00000035499053687884582710000018385650241025529782_" cx="305.6526" cy="59.4224" r="113.8366" gradientTransform="matrix(1.167 0 0 1.167 -173.8097 -27.5217)" gradientUnits="userSpaceOnUse">
					<stop  offset="0" style="stop-color:#FFFFFF"/>
					<stop  offset="1" style="stop-color:#CFD1D2"/>
				</radialGradient>
				<polygon style="fill:url(#SVGID_00000035499053687884582710000018385650241025529782_);" points="170.214,37.674 
					175.245,40.547 179.672,56.41 174.821,53.915 				"/>
			</g>
			<g>
				
					<radialGradient id="SVGID_00000067234703469116758480000009695602442614719164_" cx="305.6516" cy="59.4225" r="113.8242" gradientTransform="matrix(1.167 0 0 1.167 -173.8097 -27.5217)" gradientUnits="userSpaceOnUse">
					<stop  offset="0" style="stop-color:#FFFFFF"/>
					<stop  offset="1" style="stop-color:#CFD1D2"/>
				</radialGradient>
				<polygon style="fill:url(#SVGID_00000067234703469116758480000009695602442614719164_);" points="155.124,29.086 160.772,32.3 
					165.707,49.229 164.966,48.847 160.269,46.425 				"/>
			</g>
			<g>
				
					<radialGradient id="SVGID_00000155829861923765722560000015463977532970086331_" cx="305.6509" cy="59.4228" r="113.8164" gradientTransform="matrix(1.167 0 0 1.167 -173.8097 -27.5217)" gradientUnits="userSpaceOnUse">
					<stop  offset="0" style="stop-color:#FFFFFF"/>
					<stop  offset="1" style="stop-color:#CFD1D2"/>
				</radialGradient>
				<polygon style="fill:url(#SVGID_00000155829861923765722560000015463977532970086331_);" points="138.113,19.401 144.489,23.03 
					150.033,41.164 143.898,38.008 				"/>
			</g>
			<g>
				
					<radialGradient id="SVGID_00000091727756003983418810000014881838016564341665_" cx="305.6626" cy="59.4224" r="113.848" gradientTransform="matrix(1.167 0 0 1.167 -173.8097 -27.5217)" gradientUnits="userSpaceOnUse">
					<stop  offset="0" style="stop-color:#FFFFFF"/>
					<stop  offset="1" style="stop-color:#CFD1D2"/>
				</radialGradient>
				<polygon style="fill:url(#SVGID_00000091727756003983418810000014881838016564341665_);" points="118.77,8.385 126.043,12.522 
					132.315,32.053 128.422,30.051 125.346,28.468 				"/>
			</g>
		</g>
		<g>
			<g>
				
					<radialGradient id="SVGID_00000114787334283697056640000002868622841163229322_" cx="305.6473" cy="59.4229" r="113.8169" gradientTransform="matrix(1.167 0 0 1.167 -173.8097 -27.5217)" gradientUnits="userSpaceOnUse">
					<stop  offset="0" style="stop-color:#FFFFFF"/>
					<stop  offset="1" style="stop-color:#CFD1D2"/>
				</radialGradient>
				<polygon style="fill:url(#SVGID_00000114787334283697056640000002868622841163229322_);" points="149.39,57.685 142.19,71.216 
					135.605,69.915 143.158,56.108 				"/>
			</g>
			<g>
				
					<radialGradient id="SVGID_00000025417698357667144430000012470185062115146913_" cx="305.6621" cy="59.4243" r="113.8396" gradientTransform="matrix(1.167 0 0 1.167 -173.8097 -27.5217)" gradientUnits="userSpaceOnUse">
					<stop  offset="0" style="stop-color:#FFFFFF"/>
					<stop  offset="1" style="stop-color:#CFD1D2"/>
				</radialGradient>
				<polygon style="fill:url(#SVGID_00000025417698357667144430000012470185062115146913_);" points="131.364,53.124 
					123.124,67.448 115.594,65.958 124.258,51.329 				"/>
			</g>
			<g>
				
					<radialGradient id="SVGID_00000090269877574341094420000007873041477470282406_" cx="305.6534" cy="59.4237" r="113.8288" gradientTransform="matrix(1.167 0 0 1.167 -173.8097 -27.5217)" gradientUnits="userSpaceOnUse">
					<stop  offset="0" style="stop-color:#FFFFFF"/>
					<stop  offset="1" style="stop-color:#CFD1D2"/>
				</radialGradient>
				<polygon style="fill:url(#SVGID_00000090269877574341094420000007873041477470282406_);" points="213.817,73.979 
					209.734,84.571 205.981,83.827 210.214,73.068 				"/>
			</g>
			<g>
				
					<radialGradient id="SVGID_00000160881625161829817870000012115208446451894670_" cx="305.6574" cy="59.426" r="113.8139" gradientTransform="matrix(1.167 0 0 1.167 -173.8097 -27.5217)" gradientUnits="userSpaceOnUse">
					<stop  offset="0" style="stop-color:#FFFFFF"/>
					<stop  offset="1" style="stop-color:#CFD1D2"/>
				</radialGradient>
				<polygon style="fill:url(#SVGID_00000160881625161829817870000012115208446451894670_);" points="203.505,71.371 
					198.981,82.444 194.835,81.623 199.532,70.365 				"/>
			</g>
			<g>
				
					<radialGradient id="SVGID_00000067915986381670211300000014658323882259776936_" cx="305.6536" cy="59.4225" r="113.8283" gradientTransform="matrix(1.167 0 0 1.167 -173.8097 -27.5217)" gradientUnits="userSpaceOnUse">
					<stop  offset="0" style="stop-color:#FFFFFF"/>
					<stop  offset="1" style="stop-color:#CFD1D2"/>
				</radialGradient>
				<polygon style="fill:url(#SVGID_00000067915986381670211300000014658323882259776936_);" points="179.452,65.286 
					173.814,77.468 168.659,76.449 174.537,64.043 				"/>
			</g>
			<g>
				
					<radialGradient id="SVGID_00000039094934844007003310000002817369695748987787_" cx="305.6526" cy="59.422" r="113.8312" gradientTransform="matrix(1.167 0 0 1.167 -173.8097 -27.5217)" gradientUnits="userSpaceOnUse">
					<stop  offset="0" style="stop-color:#FFFFFF"/>
					<stop  offset="1" style="stop-color:#CFD1D2"/>
				</radialGradient>
				<polygon style="fill:url(#SVGID_00000039094934844007003310000002817369695748987787_);" points="192.109,68.489 187.075,80.09 
					182.461,79.178 187.702,67.373 				"/>
			</g>
			<g>
				<g>
					
						<radialGradient id="SVGID_00000175281523269615397980000016201036461772059321_" cx="305.6508" cy="59.4213" r="113.8327" gradientTransform="matrix(1.167 0 0 1.167 -173.8097 -27.5217)" gradientUnits="userSpaceOnUse">
						<stop  offset="0" style="stop-color:#FFFFFF"/>
						<stop  offset="1" style="stop-color:#CFD1D2"/>
					</radialGradient>
					<polygon style="fill:url(#SVGID_00000175281523269615397980000016201036461772059321_);" points="165.303,61.711 
						158.954,74.532 153.149,73.385 159.785,60.314 					"/>
				</g>
			</g>
		</g>
	</g>
	<g>
		<g>
			<path style="fill:#FFFFFF;" d="M197.392,66.721c5.19,2.54,10.392,5.057,15.618,7.527c-5.045-2.82-10.113-5.592-15.193-8.34
				C197.677,66.18,197.537,66.452,197.392,66.721z"/>
			<path style="fill:#FFFFFF;" d="M187.832,60.55c-4.278-2.28-8.568-4.537-12.865-6.78c-0.234,0.471-0.487,0.933-0.75,1.39
				c4.331,2.199,8.668,4.386,13.018,6.549c3.376,1.69,6.766,3.352,10.157,5.012c0.145-0.27,0.285-0.541,0.425-0.813
				C194.495,64.111,191.171,62.317,187.832,60.55z"/>
			<path style="fill:#FFFFFF;" d="M111.107,21.774c5.734,3.201,11.499,6.342,17.28,9.456c0.141-0.3,0.287-0.596,0.439-0.891
				C122.939,27.445,117.037,24.579,111.107,21.774z"/>
			<path style="fill:#FFFFFF;" d="M162.437,47.266c-8.494-4.357-17.001-8.697-25.555-12.951c-2.678-1.341-5.369-2.654-8.056-3.976
				c-0.152,0.294-0.298,0.591-0.439,0.891c2.631,1.417,5.257,2.841,7.898,4.239c8.431,4.494,16.908,8.898,25.388,13.285
				c4.178,2.143,8.358,4.281,12.544,6.407c0.263-0.457,0.516-0.919,0.75-1.39C170.797,51.593,166.619,49.428,162.437,47.266z"/>
		</g>
	</g>
	<g>
		<g>
			<path style="fill:#FFFFFF;" d="M109.524,77.92c0.102,0.002,0.203-0.001,0.305,0.003c-0.036-1.654-0.057-3.307-0.1-4.962
				C109.651,74.614,109.596,76.267,109.524,77.92z"/>
			<path style="fill:#FFFFFF;" d="M108.112,154.248c0.002,1.555-0.008,3.11-0.001,4.666c0.017,9.555,0.157,19.108,0.41,28.662
				c0.45-9.551,0.791-19.098,1.011-28.646c0.04-1.563,0.063-3.125,0.097-4.688C109.124,154.256,108.618,154.255,108.112,154.248z"/>
			<path style="fill:#FFFFFF;" d="M108.718,101.609c-0.247,9.548-0.387,19.1-0.504,28.654c-0.073,7.991-0.112,15.988-0.102,23.985
				c0.506,0.007,1.012,0.007,1.518-0.005c0.177-7.99,0.305-15.978,0.403-23.967c0.083-9.551,0.147-19.103,0.103-28.654
				c-0.016-7.901-0.132-15.799-0.307-23.699c-0.102-0.003-0.203,0-0.305-0.003C109.184,85.815,108.9,93.711,108.718,101.609z"/>
		</g>
	</g>
	<g>
		<g>
			<path style="fill:#FFFFFF;" d="M109.524,77.92c0.102,0.002,0.203-0.001,0.305,0.003c-0.036-1.654-0.057-3.307-0.1-4.962
				C109.651,74.614,109.596,76.267,109.524,77.92z"/>
			<path style="fill:#FFFFFF;" d="M108.112,154.248c0.002,1.555-0.008,3.11-0.001,4.666c0.017,9.555,0.157,19.108,0.41,28.662
				c0.45-9.551,0.791-19.098,1.011-28.646c0.04-1.563,0.063-3.125,0.097-4.688C109.124,154.256,108.618,154.255,108.112,154.248z"/>
			<path style="fill:#FFFFFF;" d="M108.718,101.609c-0.247,9.548-0.387,19.1-0.504,28.654c-0.073,7.991-0.112,15.988-0.102,23.985
				c0.506,0.007,1.012,0.007,1.518-0.005c0.177-7.99,0.305-15.978,0.403-23.967c0.083-9.551,0.147-19.103,0.103-28.654
				c-0.016-7.901-0.132-15.799-0.307-23.699c-0.102-0.003-0.203,0-0.305-0.003C109.184,85.815,108.9,93.711,108.718,101.609z"/>
		</g>
	</g>
	<g>
		<g>
			<path style="fill:#FFFFFF;" d="M116.011,85.478c1.22,0.203,2.441,0.386,3.661,0.584c0.009-0.08,0.019-0.16,0.029-0.24
				C118.471,85.711,117.243,85.585,116.011,85.478z"/>
			<path style="fill:#FFFFFF;" d="M188.987,94.026c-0.049,0.438-0.101,0.875-0.166,1.312c0.268,0.03,0.535,0.063,0.802,0.092
				c8.197,0.927,16.414,1.743,24.637,2.452c-8.144-1.355-16.304-2.606-24.477-3.747C189.518,94.098,189.253,94.064,188.987,94.026z"
				/>
			<path style="fill:#FFFFFF;" d="M165.243,90.851c-8.19-1.016-16.38-2.015-24.587-2.914c-6.974-0.787-13.959-1.481-20.954-2.115
				c-0.01,0.08-0.019,0.16-0.029,0.24c6.932,1.125,13.869,2.19,20.819,3.162c8.174,1.168,16.354,2.237,24.541,3.286
				c7.923,0.986,15.85,1.949,23.788,2.827c0.065-0.436,0.118-0.874,0.166-1.312C181.082,92.902,173.167,91.866,165.243,90.851z"/>
		</g>
	</g>
</g>
</svg>
