<?xml version="1.0" standalone="no"?>
<!DOCTYPE svg PUBLIC "-//W3C//DTD SVG 20010904//EN"
 "http://www.w3.org/TR/2001/REC-SVG-20010904/DTD/svg10.dtd">
<svg version="1.0" xmlns="http://www.w3.org/2000/svg"
 width="260.000000pt" height="260.000000pt" viewBox="0 0 260.000000 260.000000"
 preserveAspectRatio="xMidYMid meet">
<metadata>
Created by potrace 1.14, written by Peter Selinger 2001-2017
</metadata>
<g transform="translate(0.000000,260.000000) scale(0.100000,-0.100000)"
fill="#000000" stroke="none">
<path d="M1170 2552 c-21 -7 -139 -112 -151 -133 -5 -10 -12 -42 -15 -71 l-6
-53 286 -140 c158 -77 282 -141 277 -143 -5 -2 -98 20 -207 49 -110 28 -210
53 -223 56 -13 2 -26 5 -30 6 -3 1 -31 -14 -62 -32 l-56 -34 -2 -296 c-2 -275
-7 -769 -10 -940 -1 -66 -3 -72 -18 -65 -34 14 -135 13 -182 -3 -121 -40 -247
-151 -305 -267 -62 -125 -58 -177 22 -311 74 -122 138 -147 274 -105 65 20
154 75 217 134 57 53 130 166 151 232 20 66 20 57 23 649 1 151 6 273 11 277
9 6 816 1 823 -6 5 -5 10 -419 5 -433 -2 -7 -16 -9 -36 -6 -94 15 -193 -103
-201 -239 -6 -86 17 -113 125 -149 47 -15 94 -28 105 -29 52 -1 140 92 166
175 18 56 21 1256 4 1300 -10 25 -55 55 -260 175 -137 80 -269 157 -294 171
-25 14 -122 71 -216 126 -187 109 -193 112 -215 105z m163 -876 c37 -4 77 -9
87 -11 10 -2 50 -7 87 -10 37 -4 76 -9 85 -10 9 -2 48 -7 85 -10 37 -4 75 -9
83 -10 8 -1 49 -6 90 -11 41 -4 78 -9 83 -10 4 -1 18 -2 32 -3 24 -1 25 -4 25
-67 l0 -66 -112 6 c-62 4 -149 8 -193 11 -171 10 -244 15 -365 21 -69 4 -132
8 -140 9 -12 1 -16 21 -18 92 l-3 90 53 -7 c29 -4 84 -11 121 -14z"/>
</g>
</svg>
